<?xml version="1.0" standalone="no"?>
<!DOCTYPE svg PUBLIC "-//W3C//DTD SVG 20010904//EN"
 "http://www.w3.org/TR/2001/REC-SVG-20010904/DTD/svg10.dtd">
<svg version="1.0" xmlns="http://www.w3.org/2000/svg"
 width="184.000000pt" height="184.000000pt" viewBox="0 0 184.000000 184.000000"
 preserveAspectRatio="xMidYMid meet">

<g transform="translate(0.000000,184.000000) scale(0.100000,-0.100000)"
fill="#000000" stroke="none">
<path d="M655 1825 c-256 -66 -458 -247 -584 -527 -56 -123 -65 -175 -65 -388
-1 -193 0 -196 30 -282 86 -241 255 -433 479 -542 137 -67 226 -86 402 -86
217 0 350 35 502 134 176 114 311 287 383 493 30 83 31 98 36 274 4 167 2 194
-17 263 -72 263 -266 495 -512 610 -82 39 -177 67 -224 65 -20 -1 -13 -4 23
-10 249 -42 510 -247 639 -504 49 -97 74 -190 79 -295 l4 -95 -15 86 c-70 424
-384 736 -784 780 -390 42 -709 -129 -894 -480 -53 -100 -107 -254 -107 -304
0 -20 -4 -38 -8 -41 -4 -2 -4 35 0 84 17 192 150 444 307 579 117 101 212 148
361 181 53 11 72 19 50 18 -19 0 -57 -6 -85 -13z m459 -50 c293 -62 543 -288
640 -577 78 -230 67 -457 -29 -649 -30 -59 -39 -70 -47 -56 -10 19 -48 23 -64
7 -6 -6 -22 -6 -44 0 -58 17 -163 11 -183 -9 -16 -16 -51 -13 -96 6 l-40 17
34 42 c41 49 56 118 80 365 11 104 -26 104 -39 0 -8 -61 -38 -126 -90 -194
-35 -46 -35 -46 -14 -61 19 -14 20 -18 8 -47 -16 -39 -43 -64 -95 -92 -33 -18
-57 -22 -145 -22 -98 0 -108 2 -154 29 -69 40 -90 92 -83 202 6 101 24 140
123 266 77 98 84 116 84 213 0 49 4 66 20 80 32 29 27 87 -10 118 l-30 26 0
143 c0 153 -5 188 -25 188 -21 0 -25 -26 -25 -178 l0 -147 -30 -17 c-58 -33
-65 -94 -15 -145 32 -33 35 -42 35 -93 0 -55 -2 -59 -69 -142 -37 -47 -80
-110 -95 -139 -43 -89 -58 -219 -36 -300 13 -46 72 -105 122 -121 l40 -14 -26
-12 c-22 -10 -27 -9 -36 9 -8 14 -17 18 -30 14 -11 -4 -34 2 -51 12 -24 13
-33 15 -36 6 -7 -20 -49 -15 -96 9 -43 23 -131 27 -151 7 -6 -5 -32 -9 -58 -9
-26 0 -48 -4 -48 -9 0 -4 55 -7 123 -7 80 1 136 -3 162 -12 30 -10 45 -11 64
-2 17 8 27 8 35 0 5 -5 22 -10 37 -10 15 0 33 -7 40 -16 9 -11 23 -14 49 -10
19 3 53 1 75 -4 23 -5 55 -5 80 0 22 5 78 14 125 19 116 13 124 14 136 29 8
11 12 11 23 -2 8 -9 22 -14 32 -11 9 3 20 1 24 -5 9 -15 110 -12 151 5 25 10
41 12 54 5 10 -6 30 -10 45 -10 14 0 43 -5 64 -12 l39 -12 -44 -56 c-138 -176
-309 -291 -516 -347 -85 -24 -325 -24 -419 0 -81 20 -222 91 -312 157 -179
134 -324 391 -343 610 -26 322 175 709 452 871 90 52 145 74 235 94 86 18 306
18 393 0z m-234 -371 c0 -3 -7 -12 -15 -20 -26 -27 -18 -62 20 -86 l35 -23 0
-81 c0 -73 -3 -84 -27 -116 -165 -212 -168 -220 -168 -364 0 -105 1 -112 27
-147 45 -58 117 -80 253 -75 99 3 115 6 157 31 38 22 53 39 75 87 16 33 32 60
36 60 9 0 4 -22 -20 -88 -29 -81 -128 -118 -292 -109 -118 7 -161 19 -207 59
-64 57 -81 119 -64 238 13 96 42 154 131 265 l71 89 2 69 c1 66 0 69 -32 95
-34 28 -42 65 -22 103 10 17 40 27 40 13z m73 -18 c3 3 11 -4 17 -16 9 -17 8
-26 -5 -46 -19 -30 -32 -30 -62 -2 -28 27 -29 32 -1 57 14 14 25 18 33 11 7
-5 14 -7 18 -4z m361 -624 c-5 -41 -9 -49 -24 -45 -12 3 -22 -3 -29 -16 -7
-12 -18 -21 -26 -21 -9 0 2 24 32 70 26 38 49 68 51 66 1 -2 0 -26 -4 -54z
m356 -282 c0 -5 -7 -10 -15 -10 -8 0 -15 5 -15 10 0 6 7 10 15 10 8 0 15 -4
15 -10z"/>
<path d="M932 1349 c1 -13 8 -23 13 -21 15 3 12 35 -3 40 -9 3 -13 -3 -10 -19z"/>
<path d="M1810 10 c0 -5 7 -10 15 -10 8 0 15 5 15 10 0 6 -7 10 -15 10 -8 0
-15 -4 -15 -10z"/>
</g>
</svg>
